<svg width="113" height="50" viewBox="0 0 113 50" fill="none" xmlns="http://www.w3.org/2000/svg">
<g id="dine" filter="url(#filter0_d_0_864)">
<path fill-rule="evenodd" clip-rule="evenodd" d="M16.4596 41C18.0815 41 19.5974 40.6651 21.0071 39.9954C22.4168 39.3257 23.637 38.3896 24.6678 37.1872V40.2694H31.6481V1H24.6678V19.7443C23.7431 18.618 22.5835 17.739 21.189 17.1073C19.7944 16.4756 18.2786 16.1598 16.6415 16.1598C14.3829 16.1598 12.3783 16.704 10.6275 17.7922C8.87671 18.8805 7.5011 20.3569 6.50066 22.2215C5.50022 24.086 5 26.2055 5 28.5799C5 31 5.51538 33.1461 6.54614 35.0183C7.57689 36.8904 8.96008 38.3554 10.6957 39.4132C12.4313 40.4711 14.3526 41 16.4596 41ZM18.5514 35.0411C17.3539 35.0411 16.2853 34.7633 15.3455 34.2078C14.4057 33.6522 13.6705 32.8912 13.14 31.9247C12.6094 30.9581 12.3442 29.8584 12.3442 28.6256C12.3442 27.3775 12.617 26.2626 13.1627 25.2808C13.7084 24.2991 14.4474 23.5266 15.3796 22.9635C16.3118 22.4003 17.3767 22.1187 18.5742 22.1187C19.7868 22.1187 20.8631 22.4003 21.8029 22.9635C22.7427 23.5266 23.4816 24.2953 24.0198 25.2694C24.5579 26.2435 24.8269 27.3546 24.8269 28.6027C24.8269 29.8356 24.5579 30.9391 24.0198 31.9132C23.4816 32.8874 22.7427 33.6522 21.8029 34.2078C20.8631 34.7633 19.7792 35.0411 18.5514 35.0411ZM44.8358 11.468C44.2143 11.8409 43.5246 12.0274 42.7667 12.0274C42.0088 12.0274 41.3153 11.8409 40.6862 11.468C40.0571 11.0951 39.5531 10.589 39.1742 9.94977C38.7952 9.3105 38.6057 8.61035 38.6057 7.84931C38.6057 7.08828 38.7952 6.39574 39.1742 5.77169C39.5531 5.14764 40.0571 4.64916 40.6862 4.27626C41.3153 3.90335 42.0088 3.71689 42.7667 3.71689C43.5246 3.71689 44.2143 3.90335 44.8358 4.27626C45.4572 4.64916 45.9537 5.14764 46.3251 5.77169C46.6964 6.39574 46.8821 7.08828 46.8821 7.84931C46.8821 8.61035 46.6964 9.3105 46.3251 9.94977C45.9537 10.589 45.4572 11.0951 44.8358 11.468ZM46.2455 40.2694V16.8904H39.2651V40.2694H46.2455ZM60.8883 26.4338V40.2694H53.9079V16.8904H60.8883V19.4932C61.7826 18.4886 62.9006 17.6819 64.2421 17.0731C65.5836 16.4642 67.0653 16.1598 68.6872 16.1598C70.4759 16.1598 72.0485 16.5518 73.4052 17.3356C74.7618 18.1195 75.8267 19.2078 76.5998 20.6005C77.3728 21.9932 77.7594 23.618 77.7594 25.4749V40.2694H70.779V26.9589C70.779 25.2846 70.3432 23.9795 69.4716 23.0434C68.6 22.1073 67.4063 21.6393 65.8905 21.6393C64.8597 21.6393 63.9692 21.8486 63.2189 22.2671C62.4685 22.6857 61.8925 23.2565 61.4908 23.9795C61.0891 24.7024 60.8883 25.5205 60.8883 26.4338ZM96.1311 41C98.5868 41 100.815 40.4673 102.816 39.4018C104.817 38.3364 106.363 36.86 107.454 34.9726L102.429 32.4384C101.565 33.4734 100.667 34.2268 99.735 34.6986C98.8028 35.1705 97.7303 35.4064 96.5177 35.4064C95.2292 35.4064 94.0999 35.1591 93.1298 34.6644C92.1597 34.1697 91.4056 33.481 90.8674 32.5982C90.3293 31.7154 90.0603 30.6804 90.0603 29.4932H107.909C107.955 29.0974 107.981 28.8272 107.989 28.6826C107.996 28.5381 108 28.3668 108 28.1689C108 25.7793 107.488 23.6865 106.465 21.8904C105.442 20.0944 104.017 18.6903 102.191 17.6781C100.364 16.6659 98.2381 16.1598 95.8128 16.1598C93.9938 16.1598 92.3037 16.4756 90.7424 17.1073C89.1811 17.739 87.8093 18.6218 86.6269 19.7557C85.4446 20.8897 84.5237 22.21 83.8643 23.7169C83.205 25.2237 82.8753 26.8447 82.8753 28.5799C82.8753 30.9391 83.4589 33.0548 84.626 34.9269C85.7932 36.7991 87.3735 38.2793 89.3668 39.3676C91.3601 40.4559 93.6149 41 96.1311 41ZM90.3104 25.6119H101.133C100.982 24.7139 100.66 23.9376 100.167 23.2831C99.6744 22.6286 99.0491 22.1263 98.2912 21.7763C97.5333 21.4262 96.6768 21.2511 95.7219 21.2511C94.7063 21.2511 93.8119 21.4262 93.0389 21.7763C92.2658 22.1263 91.6443 22.6286 91.1744 23.2831C90.7045 23.9376 90.4165 24.7139 90.3104 25.6119Z" fill="white"/>
<path d="M21.0071 39.9954L20.7925 39.5438L20.7925 39.5438L21.0071 39.9954ZM24.6678 37.1872H25.1678V35.8357L24.2882 36.8618L24.6678 37.1872ZM24.6678 40.2694H24.1678V40.7694H24.6678V40.2694ZM31.6481 40.2694V40.7694H32.1481V40.2694H31.6481ZM31.6481 1H32.1481V0.5H31.6481V1ZM24.6678 1V0.5H24.1678V1H24.6678ZM24.6678 19.7443L24.2813 20.0615L25.1678 21.1414V19.7443H24.6678ZM21.189 17.1073L21.3953 16.6518L21.3953 16.6518L21.189 17.1073ZM6.50066 22.2215L6.06008 21.9851L6.06008 21.9851L6.50066 22.2215ZM15.3455 34.2078L15.091 34.6382L15.091 34.6382L15.3455 34.2078ZM13.14 31.9247L13.5783 31.6841L13.5783 31.6841L13.14 31.9247ZM21.8029 22.9635L22.0599 22.5346L22.0599 22.5346L21.8029 22.9635ZM24.0198 31.9132L24.4574 32.155L24.4574 32.155L24.0198 31.9132ZM21.8029 34.2078L22.0573 34.6382L22.0573 34.6382L21.8029 34.2078ZM44.8358 11.468L45.093 11.8968L45.093 11.8968L44.8358 11.468ZM40.6862 11.468L40.4312 11.8981L40.4312 11.8981L40.6862 11.468ZM39.1742 9.94977L38.7441 10.2047L38.7441 10.2047L39.1742 9.94977ZM46.3251 9.94977L46.7574 10.2009L46.7574 10.2009L46.3251 9.94977ZM46.2455 16.8904H46.7455V16.3904H46.2455V16.8904ZM46.2455 40.2694V40.7694H46.7455V40.2694H46.2455ZM39.2651 16.8904V16.3904H38.7651V16.8904H39.2651ZM39.2651 40.2694H38.7651V40.7694H39.2651V40.2694ZM60.8883 40.2694V40.7694H61.3883V40.2694H60.8883ZM53.9079 40.2694H53.4079V40.7694H53.9079V40.2694ZM53.9079 16.8904V16.3904H53.4079V16.8904H53.9079ZM60.8883 16.8904H61.3883V16.3904H60.8883V16.8904ZM60.8883 19.4932H60.3883V20.8067L61.2618 19.8256L60.8883 19.4932ZM64.2421 17.0731L64.0354 16.6178L64.0354 16.6178L64.2421 17.0731ZM73.4052 17.3356L73.155 17.7685L73.155 17.7685L73.4052 17.3356ZM76.5998 20.6005L76.1626 20.8431L76.1626 20.8431L76.5998 20.6005ZM77.7594 40.2694V40.7694H78.2594V40.2694H77.7594ZM70.779 40.2694H70.279V40.7694H70.779V40.2694ZM61.4908 23.9795L61.9279 24.2223L61.9279 24.2223L61.4908 23.9795ZM102.816 39.4018L103.051 39.8432L103.051 39.8432L102.816 39.4018ZM107.454 34.9726L107.887 35.2229L108.152 34.7646L107.679 34.5262L107.454 34.9726ZM102.429 32.4384L102.655 31.9919L102.3 31.8131L102.046 32.1179L102.429 32.4384ZM99.735 34.6986L99.9608 35.1447L99.9608 35.1447L99.735 34.6986ZM93.1298 34.6644L93.3569 34.2189L93.3569 34.2189L93.1298 34.6644ZM90.0603 29.4932V28.9932H89.5603V29.4932H90.0603ZM107.909 29.4932V29.9932H108.355L108.406 29.5502L107.909 29.4932ZM107.989 28.6826L108.488 28.7088L108.488 28.7088L107.989 28.6826ZM102.191 17.6781L101.948 18.1154L101.948 18.1154L102.191 17.6781ZM90.7424 17.1073L90.5549 16.6438L90.5549 16.6438L90.7424 17.1073ZM86.6269 19.7557L86.973 20.1166L86.973 20.1166L86.6269 19.7557ZM83.8643 23.7169L84.3224 23.9173L84.3224 23.9173L83.8643 23.7169ZM101.133 25.6119V26.1119H101.725L101.626 25.5287L101.133 25.6119ZM90.3104 25.6119L89.8138 25.5532L89.7478 26.1119H90.3104V25.6119ZM100.167 23.2831L99.7675 23.5838L99.7675 23.5838L100.167 23.2831ZM91.1744 23.2831L91.5806 23.5747L91.5806 23.5747L91.1744 23.2831ZM20.7925 39.5438C19.4525 40.1804 18.0103 40.5 16.4596 40.5V41.5C18.1528 41.5 19.7422 41.1499 21.2216 40.4471L20.7925 39.5438ZM24.2882 36.8618C23.3023 38.0119 22.138 38.9046 20.7925 39.5438L21.2216 40.4471C22.6955 39.7468 23.9717 38.7674 25.0474 37.5126L24.2882 36.8618ZM25.1678 40.2694V37.1872H24.1678V40.2694H25.1678ZM31.6481 39.7694H24.6678V40.7694H31.6481V39.7694ZM31.1481 1V40.2694H32.1481V1H31.1481ZM24.6678 1.5H31.6481V0.5H24.6678V1.5ZM25.1678 19.7443V1H24.1678V19.7443H25.1678ZM20.9827 17.5628C22.311 18.1644 23.4078 18.9975 24.2813 20.0615L25.0542 19.427C24.0785 18.2384 22.856 17.3135 21.3953 16.6518L20.9827 17.5628ZM16.6415 16.6598C18.2125 16.6598 19.6573 16.9625 20.9827 17.5628L21.3953 16.6518C19.9315 15.9888 18.3447 15.6598 16.6415 15.6598V16.6598ZM10.8914 18.2169C12.5555 17.1825 14.467 16.6598 16.6415 16.6598V15.6598C14.2989 15.6598 12.201 16.2254 10.3635 17.3676L10.8914 18.2169ZM6.94125 22.4579C7.90145 20.6683 9.21704 19.2577 10.8914 18.2169L10.3635 17.3676C8.53638 18.5033 7.10076 20.0455 6.06008 21.9851L6.94125 22.4579ZM5.5 28.5799C5.5 26.2777 5.98437 24.2412 6.94125 22.4579L6.06008 21.9851C5.01607 23.9308 4.5 26.1332 4.5 28.5799H5.5ZM6.98414 34.7771C5.99919 32.9882 5.5 30.927 5.5 28.5799H4.5C4.5 31.073 5.03157 33.3041 6.10814 35.2594L6.98414 34.7771ZM10.9559 38.9863C9.29863 37.9762 7.9751 36.577 6.98414 34.7771L6.10814 35.2594C7.17869 37.2039 8.62153 38.7346 10.4355 39.8402L10.9559 38.9863ZM16.4596 40.5C14.4409 40.5 12.6102 39.9946 10.9559 38.9863L10.4355 39.8402C12.2524 40.9476 14.2643 41.5 16.4596 41.5V40.5ZM15.091 34.6382C16.1152 35.2436 17.2734 35.5411 18.5514 35.5411V34.5411C17.4345 34.5411 16.4553 34.283 15.5999 33.7773L15.091 34.6382ZM12.7016 32.1653C13.2749 33.2096 14.0732 34.0365 15.091 34.6382L15.5999 33.7773C14.7381 33.2679 14.0661 32.5728 13.5783 31.6841L12.7016 32.1653ZM11.8442 28.6256C11.8442 29.9324 12.126 31.1166 12.7016 32.1653L13.5783 31.6841C13.0928 30.7997 12.8442 29.7845 12.8442 28.6256H11.8442ZM12.7257 25.0379C12.1342 26.1019 11.8442 27.3021 11.8442 28.6256H12.8442C12.8442 27.4528 13.0998 26.4232 13.5997 25.5237L12.7257 25.0379ZM15.121 22.5355C14.1118 23.1452 13.3123 23.9825 12.7257 25.0379L13.5997 25.5237C14.1044 24.6157 14.7829 23.9081 15.6381 23.3914L15.121 22.5355ZM18.5742 21.6187C17.2949 21.6187 16.1389 21.9206 15.121 22.5355L15.6381 23.3914C16.4847 22.88 17.4585 22.6187 18.5742 22.6187V21.6187ZM22.0599 22.5346C21.0343 21.92 19.8674 21.6187 18.5742 21.6187V22.6187C19.7062 22.6187 20.6918 22.8806 21.5459 23.3924L22.0599 22.5346ZM24.4574 25.0276C23.8774 23.9776 23.0766 23.1438 22.0599 22.5346L21.5459 23.3924C22.4088 23.9094 23.0859 24.613 23.5821 25.5112L24.4574 25.0276ZM25.3269 28.6027C25.3269 27.2805 25.0412 26.0844 24.4574 25.0276L23.5821 25.5112C24.0745 26.4026 24.3269 27.4287 24.3269 28.6027H25.3269ZM24.4574 32.155C25.0407 31.0991 25.3269 29.9109 25.3269 28.6027H24.3269C24.3269 29.7604 24.075 30.7791 23.5821 31.6715L24.4574 32.155ZM22.0573 34.6382C23.0755 34.0363 23.877 33.2057 24.4574 32.155L23.5821 31.6715C23.0862 32.5691 22.4099 33.2681 21.5484 33.7773L22.0573 34.6382ZM18.5514 35.5411C19.8573 35.5411 21.0312 35.2448 22.0573 34.6382L21.5484 33.7773C20.6949 34.2819 19.7011 34.5411 18.5514 34.5411V35.5411ZM42.7667 12.5274C43.6109 12.5274 44.3902 12.3185 45.093 11.8968L44.5785 11.0393C44.0384 11.3634 43.4383 11.5274 42.7667 11.5274V12.5274ZM40.4312 11.8981C41.1404 12.3185 41.9225 12.5274 42.7667 12.5274V11.5274C42.0951 11.5274 41.4902 11.3634 40.9412 11.0379L40.4312 11.8981ZM38.7441 10.2047C39.1651 10.9149 39.7288 11.4817 40.4312 11.8981L40.9412 11.0379C40.3855 10.7085 39.9412 10.2632 39.6043 9.69481L38.7441 10.2047ZM38.1057 7.84931C38.1057 8.6978 38.3182 9.48636 38.7441 10.2047L39.6043 9.69481C39.2722 9.13464 39.1057 8.5229 39.1057 7.84931H38.1057ZM38.7468 5.51217C38.3183 6.21785 38.1057 7.00082 38.1057 7.84931H39.1057C39.1057 7.17574 39.2722 6.57363 39.6015 6.03121L38.7468 5.51217ZM40.4312 3.84615C39.7317 4.26083 39.1684 4.81785 38.7468 5.51217L39.6015 6.03121C39.9378 5.47743 40.3826 5.03749 40.9412 4.70636L40.4312 3.84615ZM42.7667 3.21689C41.9225 3.21689 41.1404 3.42578 40.4312 3.84615L40.9412 4.70636C41.4902 4.38092 42.0951 4.21689 42.7667 4.21689V3.21689ZM45.093 3.84751C44.3902 3.4258 43.6109 3.21689 42.7667 3.21689V4.21689C43.4383 4.21689 44.0384 4.3809 44.5785 4.705L45.093 3.84751ZM46.7547 5.51599C46.3412 4.82104 45.7855 4.26305 45.093 3.84751L44.5785 4.705C45.129 5.03528 45.5662 5.47424 45.8954 6.02739L46.7547 5.51599ZM47.3821 7.84931C47.3821 7.00278 47.1744 6.22117 46.7547 5.51599L45.8954 6.02739C46.2185 6.57031 46.3821 7.17378 46.3821 7.84931H47.3821ZM46.7574 10.2009C47.1744 9.48307 47.3821 8.69586 47.3821 7.84931H46.3821C46.3821 8.52484 46.2184 9.13794 45.8927 9.69861L46.7574 10.2009ZM45.093 11.8968C45.7884 11.4795 46.3445 10.9117 46.7574 10.2009L45.8927 9.69861C45.5629 10.2664 45.1261 10.7107 44.5785 11.0393L45.093 11.8968ZM45.7455 16.8904V40.2694H46.7455V16.8904H45.7455ZM39.2651 17.3904H46.2455V16.3904H39.2651V17.3904ZM39.7651 40.2694V16.8904H38.7651V40.2694H39.7651ZM46.2455 39.7694H39.2651V40.7694H46.2455V39.7694ZM61.3883 40.2694V26.4338H60.3883V40.2694H61.3883ZM53.9079 40.7694H60.8883V39.7694H53.9079V40.7694ZM53.4079 16.8904V40.2694H54.4079V16.8904H53.4079ZM60.8883 16.3904H53.9079V17.3904H60.8883V16.3904ZM61.3883 19.4932V16.8904H60.3883V19.4932H61.3883ZM64.0354 16.6178C62.6365 17.2527 61.4599 18.0992 60.5149 19.1607L61.2618 19.8256C62.1054 18.878 63.1646 18.1111 64.4487 17.5284L64.0354 16.6178ZM68.6872 15.6598C67.0013 15.6598 65.4481 15.9766 64.0354 16.6178L64.4487 17.5284C65.719 16.9519 67.1293 16.6598 68.6872 16.6598V15.6598ZM73.6553 16.9027C72.2124 16.069 70.5511 15.6598 68.6872 15.6598V16.6598C70.4007 16.6598 71.8847 17.0345 73.155 17.7685L73.6553 16.9027ZM77.0369 20.3578C76.2207 18.8873 75.0918 17.7327 73.6553 16.9027L73.155 17.7685C74.4319 18.5063 75.4327 19.5282 76.1626 20.8431L77.0369 20.3578ZM78.2594 25.4749C78.2594 23.5472 77.8576 21.8362 77.0369 20.3578L76.1626 20.8431C76.8881 22.1501 77.2594 23.6887 77.2594 25.4749H78.2594ZM78.2594 40.2694V25.4749H77.2594V40.2694H78.2594ZM70.779 40.7694H77.7594V39.7694H70.779V40.7694ZM70.279 26.9589V40.2694H71.279V26.9589H70.279ZM69.1057 23.3841C69.8672 24.2019 70.279 25.3709 70.279 26.9589H71.279C71.279 25.1984 70.8193 23.757 69.8376 22.7027L69.1057 23.3841ZM65.8905 22.1393C67.2955 22.1393 68.3462 22.5684 69.1057 23.3841L69.8376 22.7027C68.8539 21.6462 67.5172 21.1393 65.8905 21.1393V22.1393ZM63.4625 22.7038C64.1248 22.3343 64.928 22.1393 65.8905 22.1393V21.1393C64.7915 21.1393 63.8136 21.3628 62.9753 21.8305L63.4625 22.7038ZM61.9279 24.2223C62.2826 23.5839 62.7901 23.0789 63.4625 22.7038L62.9753 21.8305C62.147 22.2925 61.5025 22.929 61.0538 23.7366L61.9279 24.2223ZM61.3883 26.4338C61.3883 25.5965 61.5717 24.8635 61.9279 24.2223L61.0538 23.7366C60.6066 24.5414 60.3883 25.4446 60.3883 26.4338H61.3883ZM102.581 38.9605C100.658 39.9843 98.5118 40.5 96.1311 40.5V41.5C98.6617 41.5 100.972 40.9503 103.051 39.8432L102.581 38.9605ZM107.021 34.7223C105.979 36.5254 104.503 37.9371 102.581 38.9605L103.051 39.8432C105.131 38.7356 106.747 37.1945 107.887 35.2229L107.021 34.7223ZM102.204 32.8848L107.229 35.419L107.679 34.5262L102.655 31.9919L102.204 32.8848ZM99.9608 35.1447C100.969 34.6347 101.918 33.8315 102.813 32.7588L102.046 32.1179C101.213 33.1153 100.366 33.8189 99.5092 34.2525L99.9608 35.1447ZM96.5177 35.9064C97.7962 35.9064 98.9481 35.6573 99.9608 35.1447L99.5092 34.2525C98.6574 34.6836 97.6645 34.9064 96.5177 34.9064V35.9064ZM92.9027 35.1098C93.9549 35.6464 95.1647 35.9064 96.5177 35.9064V34.9064C95.2938 34.9064 94.2449 34.6717 93.3569 34.2189L92.9027 35.1098ZM90.4405 32.8584C91.0294 33.8245 91.8547 34.5754 92.9027 35.1098L93.3569 34.2189C92.4647 33.764 91.7817 33.1374 91.2944 32.3379L90.4405 32.8584ZM89.5603 29.4932C89.5603 30.7583 89.8479 31.8862 90.4405 32.8584L91.2944 32.3379C90.8108 31.5446 90.5603 30.6024 90.5603 29.4932H89.5603ZM107.909 28.9932H90.0603V29.9932H107.909V28.9932ZM107.489 28.6565C107.483 28.7833 107.458 29.0388 107.412 29.4361L108.406 29.5502C108.451 29.1561 108.479 28.8711 108.488 28.7088L107.489 28.6565ZM107.5 28.1689C107.5 28.361 107.496 28.5231 107.489 28.6565L108.488 28.7088C108.496 28.553 108.5 28.3726 108.5 28.1689H107.5ZM106.031 22.1379C107.005 23.8475 107.5 25.8524 107.5 28.1689H108.5C108.5 25.7062 107.972 23.5254 106.9 21.6429L106.031 22.1379ZM101.948 18.1154C103.695 19.0836 105.054 20.4224 106.031 22.1379L106.9 21.6429C105.831 19.7663 104.339 18.2969 102.433 17.2407L101.948 18.1154ZM95.8128 16.6598C98.1671 16.6598 100.207 17.1505 101.948 18.1154L102.433 17.2407C100.521 16.1813 98.3091 15.6598 95.8128 15.6598V16.6598ZM90.9299 17.5708C92.427 16.9651 94.0529 16.6598 95.8128 16.6598V15.6598C93.9347 15.6598 92.1804 15.9862 90.5549 16.6438L90.9299 17.5708ZM86.973 20.1166C88.1082 19.0278 89.4258 18.1793 90.9299 17.5708L90.5549 16.6438C88.9364 17.2986 87.5103 18.2157 86.2808 19.3948L86.973 20.1166ZM84.3224 23.9173C84.9555 22.4706 85.8384 21.2047 86.973 20.1166L86.2808 19.3948C85.0508 20.5746 84.092 21.9495 83.4063 23.5165L84.3224 23.9173ZM83.3753 28.5799C83.3753 26.9099 83.6922 25.3575 84.3224 23.9173L83.4063 23.5165C82.7177 25.0899 82.3753 26.7796 82.3753 28.5799H83.3753ZM85.0503 34.6624C83.9361 32.8752 83.3753 30.8524 83.3753 28.5799H82.3753C82.3753 31.0259 82.9816 33.2344 84.2018 35.1915L85.0503 34.6624ZM89.6064 38.9287C87.6863 37.8804 86.1706 36.4593 85.0503 34.6624L84.2018 35.1915C85.4158 37.1389 87.0606 38.6782 89.1272 39.8064L89.6064 38.9287ZM96.1311 40.5C93.6894 40.5 91.5185 39.9727 89.6064 38.9287L89.1272 39.8064C91.2017 40.939 93.5404 41.5 96.1311 41.5V40.5ZM101.133 25.1119H90.3104V26.1119H101.133V25.1119ZM99.7675 23.5838C100.207 24.1675 100.501 24.8671 100.64 25.6951L101.626 25.5287C101.463 24.5607 101.112 23.7077 100.566 22.9824L99.7675 23.5838ZM98.0815 22.2302C98.766 22.5463 99.3255 22.9966 99.7675 23.5838L100.566 22.9824C100.023 22.2607 99.3322 21.7063 98.5008 21.3223L98.0815 22.2302ZM95.7219 21.7511C96.6148 21.7511 97.3982 21.9145 98.0815 22.2302L98.5008 21.3223C97.6684 20.9378 96.7388 20.7511 95.7219 20.7511V21.7511ZM93.2451 22.2317C93.9419 21.9162 94.7636 21.7511 95.7219 21.7511V20.7511C94.6489 20.7511 93.6819 20.9362 92.8326 21.3208L93.2451 22.2317ZM91.5806 23.5747C91.9966 22.9953 92.5475 22.5477 93.2451 22.2317L92.8326 21.3208C91.9841 21.705 91.292 22.262 90.7682 22.9915L91.5806 23.5747ZM90.8069 25.6705C90.9043 24.8461 91.1658 24.1524 91.5806 23.5747L90.7682 22.9915C90.2432 23.7228 89.9286 24.5816 89.8138 25.5532L90.8069 25.6705Z" fill="black"/>
</g>
<defs>
<filter id="filter0_d_0_864" x="0.5" y="0.5" width="112" height="49" filterUnits="userSpaceOnUse" color-interpolation-filters="sRGB">
<feFlood flood-opacity="0" result="BackgroundImageFix"/>
<feColorMatrix in="SourceAlpha" type="matrix" values="0 0 0 0 0 0 0 0 0 0 0 0 0 0 0 0 0 0 127 0" result="hardAlpha"/>
<feOffset dy="4"/>
<feGaussianBlur stdDeviation="2"/>
<feComposite in2="hardAlpha" operator="out"/>
<feColorMatrix type="matrix" values="0 0 0 0 0 0 0 0 0 0 0 0 0 0 0 0 0 0 0.25 0"/>
<feBlend mode="normal" in2="BackgroundImageFix" result="effect1_dropShadow_0_864"/>
<feBlend mode="normal" in="SourceGraphic" in2="effect1_dropShadow_0_864" result="shape"/>
</filter>
</defs>
</svg>
